<svg id="visual" viewBox="0 0 960 100" width="960" height="100" xmlns="http://www.w3.org/2000/svg" xmlns:xlink="http://www.w3.org/1999/xlink" version="1.1"><rect x="0" y="0" width="960" height="100" fill="#001220"></rect><path d="M0 38L22.8 35.7C45.7 33.3 91.3 28.7 137 26.5C182.7 24.3 228.3 24.7 274 27C319.7 29.3 365.3 33.7 411.2 34.8C457 36 503 34 548.8 31.5C594.7 29 640.3 26 686 24.7C731.7 23.3 777.3 23.7 823 26.8C868.7 30 914.3 36 937.2 39L960 42L960 101L937.2 101C914.3 101 868.7 101 823 101C777.3 101 731.7 101 686 101C640.3 101 594.7 101 548.8 101C503 101 457 101 411.2 101C365.3 101 319.7 101 274 101C228.3 101 182.7 101 137 101C91.3 101 45.7 101 22.8 101L0 101Z" fill="#bb4b2b"></path><path d="M0 56L22.8 54.2C45.7 52.3 91.3 48.7 137 48.8C182.7 49 228.3 53 274 52.5C319.7 52 365.3 47 411.2 47.5C457 48 503 54 548.8 56.3C594.7 58.7 640.3 57.3 686 57.3C731.7 57.3 777.3 58.7 823 56.5C868.7 54.3 914.3 48.7 937.2 45.8L960 43L960 101L937.2 101C914.3 101 868.7 101 823 101C777.3 101 731.7 101 686 101C640.3 101 594.7 101 548.8 101C503 101 457 101 411.2 101C365.3 101 319.7 101 274 101C228.3 101 182.7 101 137 101C91.3 101 45.7 101 22.8 101L0 101Z" fill="#f86a3e"></path><path d="M0 82L22.8 82.3C45.7 82.7 91.3 83.3 137 83.7C182.7 84 228.3 84 274 83.8C319.7 83.7 365.3 83.3 411.2 82.2C457 81 503 79 548.8 76.5C594.7 74 640.3 71 686 69.2C731.7 67.3 777.3 66.7 823 67C868.7 67.3 914.3 68.7 937.2 69.3L960 70L960 101L937.2 101C914.3 101 868.7 101 823 101C777.3 101 731.7 101 686 101C640.3 101 594.7 101 548.8 101C503 101 457 101 411.2 101C365.3 101 319.7 101 274 101C228.3 101 182.7 101 137 101C91.3 101 45.7 101 22.8 101L0 101Z" fill="#ff9a78"></path></svg>