<svg id="visual" viewBox="0 0 960 120" width="960" height="120" xmlns="http://www.w3.org/2000/svg" xmlns:xlink="http://www.w3.org/1999/xlink" version="1.1"><path d="M0 93L10.7 92.3C21.3 91.7 42.7 90.3 64 88.5C85.3 86.7 106.7 84.3 128 83.8C149.3 83.3 170.7 84.7 192 86.2C213.3 87.7 234.7 89.3 256 89.7C277.3 90 298.7 89 320 89.3C341.3 89.7 362.7 91.3 384 91.3C405.3 91.3 426.7 89.7 448 89.2C469.3 88.7 490.7 89.3 512 88.5C533.3 87.7 554.7 85.3 576 85.8C597.3 86.3 618.7 89.7 640 91.2C661.3 92.7 682.7 92.3 704 91.5C725.3 90.7 746.7 89.3 768 89.5C789.3 89.7 810.7 91.3 832 90.8C853.3 90.3 874.7 87.7 896 87.5C917.3 87.3 938.7 89.7 949.3 90.8L960 92L960 0L949.3 0C938.7 0 917.3 0 896 0C874.7 0 853.3 0 832 0C810.7 0 789.3 0 768 0C746.7 0 725.3 0 704 0C682.7 0 661.3 0 640 0C618.7 0 597.3 0 576 0C554.7 0 533.3 0 512 0C490.7 0 469.3 0 448 0C426.7 0 405.3 0 384 0C362.7 0 341.3 0 320 0C298.7 0 277.3 0 256 0C234.7 0 213.3 0 192 0C170.7 0 149.3 0 128 0C106.7 0 85.3 0 64 0C42.7 0 21.3 0 10.7 0L0 0Z" fill="#003a62"></path><path d="M0 64L10.7 65C21.3 66 42.7 68 64 69C85.3 70 106.7 70 128 69.2C149.3 68.3 170.7 66.7 192 66.3C213.3 66 234.7 67 256 66.8C277.3 66.7 298.7 65.3 320 64.2C341.3 63 362.7 62 384 62.7C405.3 63.3 426.7 65.7 448 67C469.3 68.3 490.7 68.7 512 67.5C533.3 66.3 554.7 63.7 576 62.3C597.3 61 618.7 61 640 61.2C661.3 61.3 682.7 61.7 704 62C725.3 62.3 746.7 62.7 768 64C789.3 65.3 810.7 67.7 832 68.3C853.3 69 874.7 68 896 67.5C917.3 67 938.7 67 949.3 67L960 67L960 0L949.3 0C938.7 0 917.3 0 896 0C874.7 0 853.3 0 832 0C810.7 0 789.3 0 768 0C746.7 0 725.3 0 704 0C682.7 0 661.3 0 640 0C618.7 0 597.3 0 576 0C554.7 0 533.3 0 512 0C490.7 0 469.3 0 448 0C426.7 0 405.3 0 384 0C362.7 0 341.3 0 320 0C298.7 0 277.3 0 256 0C234.7 0 213.3 0 192 0C170.7 0 149.3 0 128 0C106.7 0 85.3 0 64 0C42.7 0 21.3 0 10.7 0L0 0Z" fill="#021f35"></path><path d="M0 45L10.7 44.8C21.3 44.7 42.7 44.3 64 44.5C85.3 44.7 106.7 45.3 128 45C149.3 44.7 170.7 43.3 192 43.3C213.3 43.3 234.7 44.7 256 45.7C277.3 46.7 298.7 47.3 320 46.3C341.3 45.3 362.7 42.7 384 42.7C405.3 42.7 426.7 45.3 448 46.7C469.3 48 490.7 48 512 46.7C533.3 45.3 554.7 42.7 576 41.5C597.3 40.3 618.7 40.7 640 41.7C661.3 42.7 682.7 44.3 704 44.7C725.3 45 746.7 44 768 43.8C789.3 43.7 810.7 44.3 832 45.5C853.3 46.7 874.7 48.3 896 47.8C917.3 47.3 938.7 44.7 949.3 43.3L960 42L960 0L949.3 0C938.7 0 917.3 0 896 0C874.7 0 853.3 0 832 0C810.7 0 789.3 0 768 0C746.7 0 725.3 0 704 0C682.7 0 661.3 0 640 0C618.7 0 597.3 0 576 0C554.7 0 533.3 0 512 0C490.7 0 469.3 0 448 0C426.7 0 405.3 0 384 0C362.7 0 341.3 0 320 0C298.7 0 277.3 0 256 0C234.7 0 213.3 0 192 0C170.7 0 149.3 0 128 0C106.7 0 85.3 0 64 0C42.7 0 21.3 0 10.7 0L0 0Z" fill="#00111e"></path><path d="M0 20L10.7 20.7C21.3 21.3 42.7 22.7 64 23.8C85.3 25 106.7 26 128 26.7C149.3 27.3 170.7 27.7 192 27.5C213.3 27.3 234.7 26.7 256 25.5C277.3 24.3 298.7 22.7 320 22C341.3 21.3 362.7 21.7 384 22C405.3 22.3 426.7 22.7 448 22.3C469.3 22 490.7 21 512 20.7C533.3 20.3 554.7 20.7 576 21.8C597.3 23 618.7 25 640 25.5C661.3 26 682.7 25 704 24.8C725.3 24.7 746.7 25.3 768 24.8C789.3 24.3 810.7 22.7 832 21.8C853.3 21 874.7 21 896 21.7C917.3 22.3 938.7 23.7 949.3 24.3L960 25L960 0L949.3 0C938.7 0 917.3 0 896 0C874.7 0 853.3 0 832 0C810.7 0 789.3 0 768 0C746.7 0 725.3 0 704 0C682.7 0 661.3 0 640 0C618.7 0 597.3 0 576 0C554.7 0 533.3 0 512 0C490.7 0 469.3 0 448 0C426.7 0 405.3 0 384 0C362.7 0 341.3 0 320 0C298.7 0 277.3 0 256 0C234.7 0 213.3 0 192 0C170.7 0 149.3 0 128 0C106.7 0 85.3 0 64 0C42.7 0 21.3 0 10.7 0L0 0Z" fill="#000f19"></path></svg>